<svg xmlns="http://www.w3.org/2000/svg" xmlns:xlink="http://www.w3.org/1999/xlink" width="335" zoomAndPan="magnify" viewBox="0 0 251.25 133.500001" height="178" preserveAspectRatio="xMidYMid meet" version="1.0"><defs><g/><clipPath id="502d75c263"><path d="M 0.09375 0 L 250.40625 0 L 250.40625 133 L 0.09375 133 Z M 0.09375 0 " clip-rule="nonzero"/></clipPath><clipPath id="d371217e1d"><path d="M 69.949219 58.9375 L 84.894531 58.9375 L 84.894531 73.882812 L 69.949219 73.882812 Z M 69.949219 58.9375 " clip-rule="nonzero"/></clipPath><clipPath id="aebdd7a4ee"><path d="M 68 86 L 72 86 L 72 90 L 68 90 Z M 68 86 " clip-rule="nonzero"/></clipPath><clipPath id="eed6f63fcc"><path d="M 69.945312 86.121094 L 71.660156 87.832031 L 69.945312 89.546875 L 68.234375 87.832031 Z M 69.945312 86.121094 " clip-rule="nonzero"/></clipPath><clipPath id="5b4351e10f"><path d="M 69.945312 86.121094 L 71.660156 87.832031 L 69.945312 89.546875 L 68.234375 87.832031 Z M 69.945312 86.121094 " clip-rule="nonzero"/></clipPath><clipPath id="832e676227"><path d="M 194 86 L 199 86 L 199 90 L 194 90 Z M 194 86 " clip-rule="nonzero"/></clipPath><clipPath id="4beddea585"><path d="M 196.675781 86.121094 L 198.390625 87.832031 L 196.675781 89.546875 L 194.964844 87.832031 Z M 196.675781 86.121094 " clip-rule="nonzero"/></clipPath><clipPath id="65579a468e"><path d="M 196.675781 86.121094 L 198.390625 87.832031 L 196.675781 89.546875 L 194.964844 87.832031 Z M 196.675781 86.121094 " clip-rule="nonzero"/></clipPath></defs><g clip-path="url(#502d75c263)"><path fill="transparent" d="M 0.09375 0 L 250.40625 0 L 250.40625 133 L 0.09375 133 Z M 0.09375 0 " fill-opacity="1" fill-rule="nonzero"/></g><g fill="#231916" fill-opacity="1"><g transform="translate(50.767256, 80.575258)"><g><path d="M 30.023438 0 C 49.097656 0 50.398438 -13.558594 50.398438 -18.078125 C 50.398438 -31.402344 39.0625 -34.695312 32.550781 -34.695312 C 31.632812 -34.695312 30.714844 -34.621094 29.71875 -34.46875 C 34.160156 -36.839844 38.21875 -40.058594 38.21875 -45.265625 C 38.21875 -51.089844 32.859375 -53.617188 27.957031 -53.617188 L 2.679688 -53.617188 C 4.289062 -52.007812 4.136719 -49.171875 4.136719 -46.261719 L 4.136719 -7.351562 C 4.136719 -4.441406 4.289062 -1.609375 2.679688 0 Z M 32.476562 -33.777344 C 43.734375 -33.777344 46.800781 -23.589844 46.800781 -18.078125 C 46.800781 -13.480469 45.496094 -0.84375 26.425781 -0.84375 L 7.429688 -0.84375 L 7.429688 -16.085938 C 9.878906 -24.433594 23.4375 -33.777344 32.476562 -33.777344 Z M 7.429688 -18.230469 L 7.429688 -52.773438 L 25.503906 -52.773438 C 29.796875 -52.773438 34.773438 -50.707031 34.773438 -45.265625 C 34.773438 -39.523438 30.867188 -36.765625 24.738281 -33.089844 C 24.355469 -32.859375 23.898438 -32.707031 23.359375 -32.476562 C 15.777344 -29.257812 8.960938 -22.671875 7.429688 -18.230469 Z M 7.429688 -18.230469 "/></g></g></g><g fill="#231916" fill-opacity="1"><g transform="translate(102.647342, 75.966313)"><g><path d="M 11.082031 0.300781 C 15.066406 0.300781 17.703125 -1.796875 19.171875 -4.644531 L 18.214844 -5.0625 C 17.195312 -2.066406 14.4375 -0.179688 11.082031 -0.179688 C 6.320312 -0.179688 3.835938 -4.253906 3.835938 -9.375 C 3.835938 -14.5 6.320312 -18.542969 11.082031 -18.542969 C 15.847656 -18.542969 17.253906 -14.828125 17.253906 -12.339844 C 17.253906 -8.628906 13.332031 -8.867188 13.332031 -8.867188 L 4.882812 -8.867188 L 4.882812 -8.359375 L 15.128906 -8.359375 C 15.128906 -8.359375 19.53125 -8.027344 19.53125 -12.011719 C 19.53125 -14.976562 17.042969 -19.023438 11.082031 -19.023438 C 5.121094 -19.023438 1.648438 -14.679688 1.648438 -9.375 C 1.648438 -4.042969 5.121094 0.300781 11.082031 0.300781 Z M 11.082031 0.300781 "/></g></g></g><g fill="#231916" fill-opacity="1"><g transform="translate(120.829924, 75.966313)"><g><path d="M 7.546875 0.300781 C 14.078125 0.300781 18.574219 -5.960938 18.574219 -11.203125 C 18.574219 -16.414062 15.097656 -19.023438 10.183594 -19.023438 C 6.800781 -19.023438 3.863281 -17.882812 2.757812 -17.132812 L 2.757812 -14.199219 C 4.042969 -15.726562 6.589844 -18.542969 10.363281 -18.542969 C 14.589844 -18.542969 16.386719 -14.589844 16.386719 -11.082031 C 16.386719 -6.019531 14.46875 -0.777344 9.40625 -0.777344 C 6.441406 -0.777344 3.863281 -2.277344 3.863281 -5.78125 C 3.863281 -9.734375 6.980469 -13.121094 11.234375 -13.121094 C 12.402344 -13.121094 13.808594 -12.878906 14.828125 -12.339844 L 15.128906 -12.820312 C 13.691406 -13.449219 12.371094 -13.601562 11.054688 -13.601562 C 5.660156 -13.601562 1.648438 -10.363281 1.648438 -5.542969 C 1.648438 -1.558594 4.34375 0.300781 7.546875 0.300781 Z M 20.640625 0 L 20.640625 -0.480469 C 19.082031 -0.480469 17.492188 -1.40625 16.414062 -3.355469 L 16.414062 0 Z M 20.640625 0 "/></g></g></g><g fill="#231916" fill-opacity="1"><g transform="translate(138.772867, 75.966313)"><g><path d="M 11.054688 0.269531 C 13.0625 0.269531 14.828125 -0.988281 15.695312 -2.125 L 15.398438 -2.515625 C 13.929688 -1.046875 12.96875 -0.507812 11.054688 -0.507812 C 7.097656 -0.507812 6.230469 -4.941406 6.230469 -7.757812 L 6.230469 -17.042969 L 5.75 -17.042969 C 5.75 -13.152344 4.042969 -11.261719 4.042969 -7.488281 C 4.042969 -2.847656 7.128906 0.269531 11.054688 0.269531 Z M 0 -18.242188 L 12.941406 -18.242188 L 12.941406 -20.160156 C 11.710938 -19.5625 9.644531 -18.722656 6.109375 -18.722656 L 3.714844 -18.722656 C 4.972656 -18.992188 6.261719 -20.578125 6.261719 -23.964844 L 6.261719 -26.480469 L 4.164062 -26.480469 L 4.164062 -22.046875 C 4.164062 -19.921875 3.804688 -18.722656 2.214844 -18.722656 C 1.347656 -18.722656 1.257812 -18.722656 0 -18.722656 Z M 0 -18.242188 "/></g></g></g><g fill="#231916" fill-opacity="1"><g transform="translate(151.473685, 75.966313)"><g><path d="M 1.046875 0 L 9.136719 0 L 9.136719 -0.777344 C 8.71875 -0.570312 7.9375 -0.480469 7.457031 -0.480469 C 6.5 -0.480469 6.140625 -1.046875 6.140625 -2.246094 L 6.140625 -18.722656 L 1.046875 -18.722656 L 1.046875 -17.941406 C 1.46875 -18.152344 2.246094 -18.242188 2.726562 -18.242188 C 3.683594 -18.242188 4.042969 -17.671875 4.042969 -16.476562 L 4.042969 -0.449219 L 1.046875 -0.777344 Z M 7.1875 -15.308594 C 8.148438 -16.207031 9.375 -17.613281 12.699219 -17.613281 C 15.457031 -17.613281 16.925781 -15.667969 17.285156 -14.976562 L 17.285156 -18.722656 C 17.285156 -18.722656 15.695312 -19.023438 14.050781 -19.023438 C 10.003906 -19.023438 7.910156 -16.953125 6.769531 -15.695312 Z M 7.1875 -15.308594 "/></g></g></g><g fill="#231916" fill-opacity="1"><g transform="translate(166.361215, 75.966313)"><g><path d="M 1.046875 -17.941406 C 1.46875 -18.152344 2.246094 -18.242188 2.726562 -18.242188 C 3.683594 -18.242188 4.042969 -17.671875 4.042969 -16.476562 L 4.042969 -0.449219 L 1.046875 -0.777344 L 1.046875 0 L 9.136719 0 L 9.136719 -0.777344 C 8.71875 -0.570312 7.9375 -0.480469 7.457031 -0.480469 C 6.5 -0.480469 6.140625 -1.046875 6.140625 -2.246094 L 6.140625 -18.722656 L 1.046875 -18.722656 Z M 1.347656 -22.226562 C 1.585938 -21.507812 2.425781 -21.148438 3.265625 -21.148438 C 4.824219 -21.148438 6.53125 -22.226562 6.53125 -24.054688 C 6.53125 -24.652344 6.351562 -25.460938 5.453125 -25.671875 C 5.992188 -23.574219 3.355469 -21.898438 1.347656 -22.226562 Z M 1.347656 -22.226562 "/></g></g></g><g fill="#231916" fill-opacity="1"><g transform="translate(173.25076, 75.966313)"><g><path d="M 1.648438 -9.375 C 1.648438 -4.042969 5.121094 0.300781 11.082031 0.300781 C 15.066406 0.300781 17.703125 -1.796875 19.171875 -4.644531 L 18.214844 -5.0625 C 17.195312 -2.066406 14.4375 -0.179688 11.082031 -0.179688 C 6.320312 -0.179688 3.835938 -4.253906 3.835938 -9.375 C 3.835938 -14.5 6.320312 -18.542969 11.082031 -18.542969 C 15.15625 -18.542969 17.132812 -15.515625 17.132812 -14.167969 C 17.132812 -13.628906 17.015625 -13.242188 16.835938 -12.878906 C 18.121094 -12.640625 18.84375 -13.421875 18.84375 -14.558594 C 18.84375 -17.132812 15.90625 -19.023438 11.082031 -19.023438 C 5.121094 -19.023438 1.648438 -14.679688 1.648438 -9.375 Z M 1.648438 -9.375 "/></g></g></g><g fill="#231916" fill-opacity="1"><g transform="translate(190.774334, 75.966313)"><g><path d="M 11.082031 0.300781 C 15.066406 0.300781 17.703125 -1.796875 19.171875 -4.644531 L 18.214844 -5.0625 C 17.195312 -2.066406 14.4375 -0.179688 11.082031 -0.179688 C 6.320312 -0.179688 3.835938 -4.253906 3.835938 -9.375 C 3.835938 -14.5 6.320312 -18.542969 11.082031 -18.542969 C 15.847656 -18.542969 17.253906 -14.828125 17.253906 -12.339844 C 17.253906 -8.628906 13.332031 -8.867188 13.332031 -8.867188 L 4.882812 -8.867188 L 4.882812 -8.359375 L 15.128906 -8.359375 C 15.128906 -8.359375 19.53125 -8.027344 19.53125 -12.011719 C 19.53125 -14.976562 17.042969 -19.023438 11.082031 -19.023438 C 5.121094 -19.023438 1.648438 -14.679688 1.648438 -9.375 C 1.648438 -4.042969 5.121094 0.300781 11.082031 0.300781 Z M 11.082031 0.300781 "/></g></g></g><g fill="#231916" fill-opacity="1"><g transform="translate(77.563965, 91.902898)"><g><path d="M 7 -6.859375 L 7 0.25 L 6.96875 0.25 L 2.03125 -4.546875 L 2.046875 0 L 0.9375 0 L 0.9375 -7.09375 L 1 -7.09375 L 5.921875 -2.25 L 5.90625 -6.859375 Z M 7 -6.859375 "/></g></g></g><g fill="#231916" fill-opacity="1"><g transform="translate(88.612489, 91.902898)"><g><path d="M 1.9375 -2.46875 C 1.9375 -2.207031 2.003906 -1.960938 2.140625 -1.734375 C 2.273438 -1.503906 2.460938 -1.320312 2.703125 -1.1875 C 2.941406 -1.050781 3.203125 -0.984375 3.484375 -0.984375 C 3.773438 -0.984375 4.039062 -1.050781 4.28125 -1.1875 C 4.53125 -1.320312 4.722656 -1.5 4.859375 -1.71875 C 4.992188 -1.945312 5.0625 -2.195312 5.0625 -2.46875 L 5.0625 -6.859375 L 6.15625 -6.859375 L 6.15625 -2.4375 C 6.15625 -1.945312 6.035156 -1.507812 5.796875 -1.125 C 5.566406 -0.75 5.242188 -0.453125 4.828125 -0.234375 C 4.421875 -0.0234375 3.972656 0.078125 3.484375 0.078125 C 2.992188 0.078125 2.546875 -0.0234375 2.140625 -0.234375 C 1.734375 -0.453125 1.414062 -0.75 1.1875 -1.125 C 0.957031 -1.507812 0.84375 -1.945312 0.84375 -2.4375 L 0.84375 -6.859375 L 1.9375 -6.859375 Z M 1.9375 -2.46875 "/></g></g></g><g fill="#231916" fill-opacity="1"><g transform="translate(98.690033, 91.902898)"><g><path d="M 5.046875 -6.859375 L 5.046875 -5.796875 L 3.265625 -5.796875 L 3.265625 0 L 2.171875 0 L 2.171875 -5.796875 L 0.453125 -5.796875 L 0.453125 -6.859375 Z M 5.046875 -6.859375 "/></g></g></g><g fill="#231916" fill-opacity="1"><g transform="translate(107.278112, 91.902898)"><g><path d="M 4.6875 0 L 3.140625 -2.390625 L 2.046875 -2.390625 L 2.046875 0 L 0.9375 0 L 0.9375 -6.859375 L 2.875 -6.859375 C 3.632812 -6.859375 4.242188 -6.660156 4.703125 -6.265625 C 5.171875 -5.878906 5.40625 -5.34375 5.40625 -4.65625 C 5.40625 -4.226562 5.316406 -3.832031 5.140625 -3.46875 C 4.960938 -3.113281 4.679688 -2.835938 4.296875 -2.640625 L 5.96875 0 Z M 2.046875 -3.4375 L 3.03125 -3.4375 C 3.46875 -3.4375 3.785156 -3.554688 3.984375 -3.796875 C 4.179688 -4.046875 4.28125 -4.316406 4.28125 -4.609375 C 4.28125 -4.785156 4.238281 -4.960938 4.15625 -5.140625 C 4.082031 -5.328125 3.953125 -5.484375 3.765625 -5.609375 C 3.585938 -5.734375 3.351562 -5.796875 3.0625 -5.796875 L 2.046875 -5.796875 Z M 2.046875 -3.4375 "/></g></g></g><g fill="#231916" fill-opacity="1"><g transform="translate(116.68634, 91.902898)"><g><path d="M 2.046875 -6.859375 L 2.046875 0 L 0.9375 0 L 0.9375 -6.859375 Z M 2.046875 -6.859375 "/></g></g></g><g fill="#231916" fill-opacity="1"><g transform="translate(122.766841, 91.902898)"><g><path d="M 6.03125 -0.53125 C 5.832031 -0.394531 5.550781 -0.257812 5.1875 -0.125 C 4.832031 0.0078125 4.445312 0.078125 4.03125 0.078125 C 3.320312 0.078125 2.703125 -0.078125 2.171875 -0.390625 C 1.640625 -0.703125 1.226562 -1.117188 0.9375 -1.640625 C 0.65625 -2.171875 0.515625 -2.75 0.515625 -3.375 C 0.515625 -4.0625 0.65625 -4.671875 0.9375 -5.203125 C 1.226562 -5.742188 1.628906 -6.164062 2.140625 -6.46875 C 2.648438 -6.78125 3.234375 -6.9375 3.890625 -6.9375 C 4.296875 -6.9375 4.664062 -6.878906 5 -6.765625 C 5.34375 -6.660156 5.648438 -6.53125 5.921875 -6.375 L 5.484375 -5.34375 C 4.972656 -5.695312 4.453125 -5.875 3.921875 -5.875 C 3.523438 -5.875 3.148438 -5.765625 2.796875 -5.546875 C 2.453125 -5.335938 2.175781 -5.046875 1.96875 -4.671875 C 1.757812 -4.296875 1.65625 -3.882812 1.65625 -3.4375 C 1.65625 -2.96875 1.75 -2.546875 1.9375 -2.171875 C 2.132812 -1.796875 2.410156 -1.503906 2.765625 -1.296875 C 3.117188 -1.085938 3.53125 -0.984375 4 -0.984375 C 4.332031 -0.984375 4.628906 -1.03125 4.890625 -1.125 C 5.160156 -1.226562 5.382812 -1.359375 5.5625 -1.515625 Z M 6.03125 -0.53125 "/></g></g></g><g fill="#231916" fill-opacity="1"><g transform="translate(132.410744, 91.902898)"><g><path d="M 2.046875 -6.859375 L 2.046875 0 L 0.9375 0 L 0.9375 -6.859375 Z M 2.046875 -6.859375 "/></g></g></g><g fill="#231916" fill-opacity="1"><g transform="translate(138.491248, 91.902898)"><g><path d="M 0.515625 -3.421875 C 0.515625 -4.046875 0.671875 -4.625 0.984375 -5.15625 C 1.296875 -5.695312 1.722656 -6.128906 2.265625 -6.453125 C 2.804688 -6.773438 3.390625 -6.9375 4.015625 -6.9375 C 4.648438 -6.9375 5.234375 -6.773438 5.765625 -6.453125 C 6.304688 -6.128906 6.734375 -5.695312 7.046875 -5.15625 C 7.367188 -4.625 7.53125 -4.046875 7.53125 -3.421875 C 7.53125 -2.785156 7.367188 -2.195312 7.046875 -1.65625 C 6.734375 -1.125 6.304688 -0.703125 5.765625 -0.390625 C 5.234375 -0.078125 4.648438 0.078125 4.015625 0.078125 C 3.390625 0.078125 2.804688 -0.078125 2.265625 -0.390625 C 1.722656 -0.703125 1.296875 -1.125 0.984375 -1.65625 C 0.671875 -2.1875 0.515625 -2.773438 0.515625 -3.421875 Z M 1.65625 -3.421875 C 1.65625 -2.972656 1.757812 -2.5625 1.96875 -2.1875 C 2.1875 -1.820312 2.476562 -1.53125 2.84375 -1.3125 C 3.207031 -1.09375 3.609375 -0.984375 4.046875 -0.984375 C 4.484375 -0.984375 4.878906 -1.085938 5.234375 -1.296875 C 5.597656 -1.515625 5.882812 -1.8125 6.09375 -2.1875 C 6.300781 -2.5625 6.40625 -2.972656 6.40625 -3.421875 C 6.40625 -3.867188 6.296875 -4.28125 6.078125 -4.65625 C 5.867188 -5.03125 5.582031 -5.328125 5.21875 -5.546875 C 4.851562 -5.765625 4.453125 -5.875 4.015625 -5.875 C 3.578125 -5.875 3.175781 -5.765625 2.8125 -5.546875 C 2.457031 -5.328125 2.175781 -5.03125 1.96875 -4.65625 C 1.757812 -4.28125 1.65625 -3.867188 1.65625 -3.421875 Z M 1.65625 -3.421875 "/></g></g></g><g fill="#231916" fill-opacity="1"><g transform="translate(149.643469, 91.902898)"><g><path d="M 7 -6.859375 L 7 0.25 L 6.96875 0.25 L 2.03125 -4.546875 L 2.046875 0 L 0.9375 0 L 0.9375 -7.09375 L 1 -7.09375 L 5.921875 -2.25 L 5.90625 -6.859375 Z M 7 -6.859375 "/></g></g></g><g fill="#231916" fill-opacity="1"><g transform="translate(160.691991, 91.902898)"><g><path d="M 2.046875 -6.859375 L 2.046875 0 L 0.9375 0 L 0.9375 -6.859375 Z M 2.046875 -6.859375 "/></g></g></g><g fill="#231916" fill-opacity="1"><g transform="translate(166.772495, 91.902898)"><g><path d="M 4.546875 -5.46875 C 3.953125 -5.769531 3.425781 -5.921875 2.96875 -5.921875 C 2.625 -5.921875 2.351562 -5.84375 2.15625 -5.6875 C 1.957031 -5.539062 1.859375 -5.335938 1.859375 -5.078125 C 1.859375 -4.816406 1.984375 -4.597656 2.234375 -4.421875 C 2.484375 -4.253906 2.832031 -4.085938 3.28125 -3.921875 C 3.613281 -3.796875 3.898438 -3.65625 4.140625 -3.5 C 4.390625 -3.351562 4.59375 -3.144531 4.75 -2.875 C 4.90625 -2.613281 4.984375 -2.285156 4.984375 -1.890625 C 4.984375 -1.523438 4.890625 -1.191406 4.703125 -0.890625 C 4.523438 -0.597656 4.265625 -0.363281 3.921875 -0.1875 C 3.578125 -0.0078125 3.164062 0.078125 2.6875 0.078125 C 2.28125 0.078125 1.875 0.015625 1.46875 -0.109375 C 1.0625 -0.242188 0.703125 -0.425781 0.390625 -0.65625 L 0.890625 -1.5 C 1.117188 -1.332031 1.390625 -1.1875 1.703125 -1.0625 C 2.023438 -0.945312 2.320312 -0.890625 2.59375 -0.890625 C 2.925781 -0.890625 3.21875 -0.96875 3.46875 -1.125 C 3.71875 -1.289062 3.84375 -1.539062 3.84375 -1.875 C 3.84375 -2.132812 3.738281 -2.351562 3.53125 -2.53125 C 3.320312 -2.707031 3.023438 -2.867188 2.640625 -3.015625 C 2.253906 -3.160156 1.929688 -3.300781 1.671875 -3.4375 C 1.421875 -3.582031 1.203125 -3.78125 1.015625 -4.03125 C 0.828125 -4.289062 0.734375 -4.613281 0.734375 -5 C 0.734375 -5.550781 0.921875 -6 1.296875 -6.34375 C 1.679688 -6.6875 2.1875 -6.867188 2.8125 -6.890625 C 3.257812 -6.890625 3.65625 -6.835938 4 -6.734375 C 4.34375 -6.628906 4.660156 -6.484375 4.953125 -6.296875 Z M 4.546875 -5.46875 "/></g></g></g><g fill="#231916" fill-opacity="1"><g transform="translate(175.351155, 91.902898)"><g><path d="M 5.046875 -6.859375 L 5.046875 -5.796875 L 3.265625 -5.796875 L 3.265625 0 L 2.171875 0 L 2.171875 -5.796875 L 0.453125 -5.796875 L 0.453125 -6.859375 Z M 5.046875 -6.859375 "/></g></g></g><g fill="#231916" fill-opacity="1"><g transform="translate(183.939231, 91.902898)"><g><path d="M 4.46875 -1.609375 L 1.96875 -1.609375 L 1.3125 0 L 0.21875 0 L 3.265625 -7.140625 L 3.328125 -7.140625 L 6.359375 0 L 5.09375 0 Z M 4.09375 -2.546875 L 3.234375 -4.71875 L 2.359375 -2.546875 Z M 4.09375 -2.546875 "/></g></g></g><g clip-path="url(#d371217e1d)"><path fill="#231916" d="M 84.683594 66.304688 C 79.160156 67.320312 78.335938 68.144531 77.316406 73.671875 C 76.300781 68.144531 75.476562 67.320312 69.949219 66.304688 C 75.476562 65.289062 76.300781 64.460938 77.316406 58.9375 C 78.335938 64.460938 79.160156 65.289062 84.683594 66.304688 Z M 84.683594 66.304688 " fill-opacity="1" fill-rule="nonzero"/></g><g clip-path="url(#aebdd7a4ee)"><g clip-path="url(#eed6f63fcc)"><g clip-path="url(#5b4351e10f)"><path fill="#231916" d="M 69.945312 86.121094 L 71.660156 87.832031 L 69.945312 89.546875 L 68.234375 87.832031 Z M 69.945312 86.121094 " fill-opacity="1" fill-rule="nonzero"/></g></g></g><g clip-path="url(#832e676227)"><g clip-path="url(#4beddea585)"><g clip-path="url(#65579a468e)"><path fill="#231916" d="M 196.675781 86.121094 L 198.390625 87.832031 L 196.675781 89.546875 L 194.964844 87.832031 Z M 196.675781 86.121094 " fill-opacity="1" fill-rule="nonzero"/></g></g></g></svg>